<svg id="Livello_1" data-name="Livello 1" xmlns="http://www.w3.org/2000/svg" viewBox="0 0 329.15 133.92"><defs><style>.cls-1{fill:#1f4465;}</style></defs><title>cTavola disegno 1</title><path class="cls-1" d="M214,56.7H199.7v2.13l5,.57c.09,4.58.09,9.19.09,13.76v2.66c0,4.64,0,9.25-.09,13.76l-5,.57v2.12h14.87V90.15l-4.95-.57c-.08-3.84-.1-7.54-.1-11.38h2.87c10.83,0,14.92-5,14.92-10.93C227.31,61.06,222.79,56.7,214,56.7Zm-.79,19.06h-3.67v-2.6c0-4.73,0-9.42.11-14H213c6.43,0,9.29,3,9.29,8.12S219.71,75.76,213.19,75.76Z"/><path class="cls-1" d="M234.16,57.08a3.51,3.51,0,1,0,3.5-3.35A3.33,3.33,0,0,0,234.16,57.08Z"/><path class="cls-1" d="M243.66,92.27V90.41l-3.79-.76c-.06-2.66-.08-6.16-.08-8.53v-7L240,67l-.8-.53-8,3.18v1.86l4.36.48c.1,2.12.16,3.77.16,6.69v2.49c0,2.38,0,5.88-.09,8.55l-4.11.74v1.86h12.21Z"/><path class="cls-1" d="M273.07,81.12V76.24c0-7-2.17-9.82-6.74-9.82-3.34,0-7.05,2-9.59,4.83L256.3,67l-.8-.53-7.22,3.18v1.86l4.25.48c.1,2.12.16,3.77.16,6.69v2.49c0,2.38,0,5.9-.09,8.57l-4,.72v1.86h12.21V90.41L257,89.65c-.06-2.66-.09-6.16-.09-8.53V73.45c2.81-2.34,4.91-3.32,7.44-3.32,3.18,0,4.46,1.6,4.46,6.53v4.46c0,2.45,0,5.92-.09,8.57l-4,.72v1.86H277V90.41l-3.79-.76C273.1,87,273.07,83.57,273.07,81.12Z"/><path class="cls-1" d="M291.5,90.31c-1.81,0-3-1.17-3-3.93V69.87h7.32V67.11h-7.23l.33-7.22h-3.08L284.56,67l-4.74.61v2.28h4.46V82.5c0,2.07,0,3.19,0,4.46,0,4.09,2.28,6,5.94,6a7.6,7.6,0,0,0,6.16-2.71l-1.22-1.43A6,6,0,0,1,291.5,90.31Z"/><path class="cls-1" d="M312.1,66.42C306,66.42,300,71,300,79.8S306,93,312.1,93s12.1-4.35,12.1-13.16S318.1,66.42,312.1,66.42Zm0,24.15c-4.73,0-7.33-3.66-7.33-10.77s2.6-11,7.33-11,7.32,3.87,7.32,11S316.72,90.57,312.1,90.57Z"/><path class="cls-1" d="M92.12,107.56h-6.3v.87l2,.23c0,1.84,0,3.68,0,5.52v.8c0,2.07,0,4,0,5.77l-2,.22v.87h5.87c4.17,0,7.32-2.52,7.32-7.12S96.2,107.56,92.12,107.56Zm-.55,13.29H89.88c0-1.88,0-3.79,0-5.87v-.8c0-1.9,0-3.78,0-5.62h1.86c3.12,0,4.93,2.15,4.93,6.16S94.87,120.85,91.57,120.85Z"/><ellipse class="cls-1" cx="104.13" cy="106.71" rx="1.43" ry="1.36"/><path class="cls-1" d="M105,117.36v-2.82l.07-2.89-.32-.21-3.3,1.29v.75l1.73.19c0,.85.06,1.51.06,2.69v1c0,1,0,2.35,0,3.42l-1.62.3v.76h4.94v-.76l-1.49-.3C105.05,119.71,105,118.31,105,117.36Z"/><path class="cls-1" d="M125.15,117.36v-2.21c0-2.64-1-3.71-2.73-3.71a5.06,5.06,0,0,0-3.87,2,2.35,2.35,0,0,0-2.52-2,5.36,5.36,0,0,0-3.74,1.93l-.18-1.72-.32-.21-3,1.29v.75l1.69.19c0,.85.06,1.5.06,2.68v1c0,1,0,2.36,0,3.43l-1.59.29v.76h5v-.76l-1.49-.3c0-1.07,0-2.47,0-3.42v-3.09A4.33,4.33,0,0,1,115.2,113c1.26,0,1.76.64,1.76,2.59v1.81c0,1,0,2.37,0,3.43l-1.58.29v.76h4.94v-.76l-1.5-.3c0-1.06,0-2.44,0-3.42v-2a8.55,8.55,0,0,0-.06-1.06,4.24,4.24,0,0,1,2.87-1.35c1.24,0,1.78.57,1.78,2.55v1.85c0,1,0,2.37,0,3.43l-1.58.29v.76h4.94v-.76l-1.49-.3C125.16,119.72,125.15,118.34,125.15,117.36Z"/><path class="cls-1" d="M134,111.44c-2.48,0-4.89,1.85-4.89,5.38s2.39,5.3,4.89,5.3,4.9-1.77,4.9-5.3S136.46,111.44,134,111.44Zm0,9.71c-1.85,0-2.87-1.46-2.87-4.33s1-4.41,2.87-4.41,2.88,1.54,2.88,4.41S135.83,121.15,134,121.15Z"/><path class="cls-1" d="M148.06,111.44c-1.16,0-2.36,1-3.07,2.79l-.24-2.58-.32-.21-3,1.29v.75l1.69.19c0,.85.06,1.5.06,2.67v1c0,1,0,2.36,0,3.44l-1.55.28v.76h5.19v-.76l-1.77-.33c0-1.06,0-2.45,0-3.39v-1.55a5.31,5.31,0,0,1,1.79-2.79l.25.22a1.92,1.92,0,0,0,1.3.54c.86,0,1.25-.56,1.26-1.57A1.79,1.79,0,0,0,148.06,111.44Z"/><path class="cls-1" d="M160.22,115.54a3.83,3.83,0,0,0-4-4.1c-2.65,0-4.9,2.16-4.9,5.44s1.87,5.24,4.75,5.24a4.35,4.35,0,0,0,4.09-2.47l-.5-.41a3.66,3.66,0,0,1-3,1.5c-2.07,0-3.41-1.4-3.46-4h6.8A4.11,4.11,0,0,0,160.22,115.54Zm-3,.28h-3.88c.25-2.46,1.61-3.41,2.82-3.41a2.32,2.32,0,0,1,2.32,2.31C158.45,115.34,158.21,115.82,157.19,115.82Z"/><path class="cls-1" d="M178,109.27l.09-3-.3-.17-3.34,1v.76l1.82.21v4.83a3.45,3.45,0,0,0-2.78-1.39c-2.61,0-4.56,2.17-4.56,5.43,0,3.11,1.76,5.25,4.35,5.25a3.5,3.5,0,0,0,3-1.56l.15,1.5,3.31-.22v-.76l-1.73-.29Zm-4.19,11.64c-1.7,0-3-1.28-3-4.09s1.36-4.17,3-4.17a3.57,3.57,0,0,1,2.4,1.11v5.9A3,3,0,0,1,173.78,120.91Z"/><ellipse class="cls-1" cx="184.15" cy="106.71" rx="1.43" ry="1.36"/><path class="cls-1" d="M185.05,117.36v-2.82l.07-2.89-.33-.21-3.29,1.29v.75l1.73.19c0,.85.06,1.51.06,2.69v1c0,1,0,2.35,0,3.42l-1.63.3v.76h5v-.76l-1.49-.3C185.06,119.71,185.05,118.31,185.05,117.36Z"/><polygon class="cls-1" points="202.6 111.72 200.45 111.72 200.45 112.54 202.21 112.84 199.82 119.66 197.19 112.81 199.09 112.54 199.09 111.72 196.78 111.72 194.66 111.72 193.92 111.72 193.92 112.54 195.09 112.74 198.97 121.96 199.88 121.96 203.35 112.81 204.5 112.54 204.5 111.72 203.77 111.72 202.6 111.72"/><ellipse class="cls-1" cx="208.81" cy="106.71" rx="1.43" ry="1.36"/><path class="cls-1" d="M209.71,117.36v-2.82l.07-2.89-.33-.21-3.29,1.29v.75l1.73.19c0,.85.06,1.51.06,2.69v1c0,1,0,2.35,0,3.42l-1.63.3v.76h5v-.76l-1.49-.3C209.72,119.71,209.71,118.31,209.71,117.36Z"/><path class="cls-1" d="M222.24,121c-.48,0-.77-.34-.77-1.27v-4.53c0-2.7-1.07-3.71-3.3-3.71s-3.77,1-4.16,2.64a.9.9,0,0,0,1,.87c.59,0,.94-.36,1.12-1l.4-1.38a4.91,4.91,0,0,1,1.17-.14c1.4,0,2,.51,2,2.59v.53c-.85.2-1.75.47-2.41.7-2.88,1-3.53,2-3.53,3.22a2.6,2.6,0,0,0,2.85,2.67c1.26,0,2-.55,3.14-1.71a1.86,1.86,0,0,0,1.92,1.65,2,2,0,0,0,1.85-1.12l-.43-.46A1.06,1.06,0,0,1,222.24,121Zm-6.62-1.81c0-.64.23-1.45,2.1-2.18a18.92,18.92,0,0,1,1.95-.63v3.26c-1.22.86-1.64,1.12-2.35,1.12C216.35,120.71,215.62,120.26,215.62,119.14Z"/><path class="cls-1" d="M232.08,112.27a4.19,4.19,0,0,0-2.69-.83c-2.23,0-3.88,1.25-3.88,3.49a3.18,3.18,0,0,0,1.65,3c-1.06,1-1.44,1.7-1.44,2.37a1.64,1.64,0,0,0,1.42,1.62c-1.59.78-2.11,1.5-2.11,2.43,0,1.52,1.32,2.59,4.42,2.59,3.49,0,5.27-1.83,5.27-3.68s-1.1-2.75-3.43-2.75h-2.8c-1,0-1.24-.38-1.24-1a2.06,2.06,0,0,1,.55-1.35,5.18,5.18,0,0,0,1.57.23c2.2,0,3.85-1.25,3.85-3.5a3.54,3.54,0,0,0-.52-1.94h2.13v-1.34l-.32-.21Zm-3.59,9.87H231c1.54,0,2.12.72,2.12,1.66,0,1.2-1.24,2.17-3.58,2.17-1.68,0-2.76-.56-2.76-2a2.74,2.74,0,0,1,.85-1.92A8,8,0,0,0,228.49,122.14Zm.82-4.57c-1.31,0-2.05-1.06-2.05-2.62s.81-2.65,2.15-2.65,2.07,1.06,2.07,2.57S230.67,117.57,229.31,117.57Z"/><path class="cls-1" d="M243.77,112.27a4.19,4.19,0,0,0-2.69-.83c-2.22,0-3.88,1.25-3.88,3.49a3.18,3.18,0,0,0,1.65,3c-1,1-1.44,1.7-1.44,2.37a1.64,1.64,0,0,0,1.42,1.62c-1.59.78-2.11,1.5-2.11,2.43,0,1.52,1.32,2.59,4.42,2.59,3.49,0,5.27-1.83,5.27-3.68s-1.09-2.75-3.43-2.75h-2.8c-1,0-1.24-.38-1.24-1a2.06,2.06,0,0,1,.55-1.35,5.18,5.18,0,0,0,1.57.23c2.2,0,3.85-1.25,3.85-3.5a3.54,3.54,0,0,0-.52-1.94h2.13v-1.34l-.32-.21Zm-3.59,9.87h2.5c1.54,0,2.12.72,2.12,1.66,0,1.2-1.24,2.17-3.58,2.17-1.68,0-2.76-.56-2.76-2a2.74,2.74,0,0,1,.85-1.92A8,8,0,0,0,240.18,122.14Zm.82-4.57c-1.3,0-2.05-1.06-2.05-2.62s.81-2.65,2.15-2.65,2.07,1.06,2.07,2.57S242.36,117.57,241,117.57Z"/><path class="cls-1" d="M252,117.36v-2.82l.06-2.89-.32-.21-3.3,1.29v.75l1.73.19c0,.85.06,1.51.06,2.69v1c0,1,0,2.35,0,3.42l-1.62.3v.76h5v-.76l-1.5-.3C252,119.71,252,118.31,252,117.36Z"/><ellipse class="cls-1" cx="251.11" cy="106.71" rx="1.43" ry="1.36"/><path class="cls-1" d="M260.92,111.44c-2.48,0-4.89,1.85-4.89,5.38s2.39,5.3,4.89,5.3,4.9-1.77,4.9-5.3S263.37,111.44,260.92,111.44Zm0,9.71c-1.86,0-2.88-1.46-2.88-4.33s1-4.41,2.88-4.41,2.88,1.54,2.88,4.41S262.74,121.15,260.92,121.15Z"/><path class="cls-1" d="M195,75.8a6.43,6.43,0,0,0,0-1.25,6.12,6.12,0,0,0-.62-2,4.44,4.44,0,0,0-.89-1.22,3.71,3.71,0,0,0-.77-.59,5.25,5.25,0,0,0-1.08-.38l-.17,0h-.32l-.28,0a2.69,2.69,0,0,0-1,.37,3.66,3.66,0,0,0-1,1.07,8.67,8.67,0,0,0-.86,1.82c-.42,1.15-.66,2.33-1,3.51a14,14,0,0,1-1.34,3.37,2.9,2.9,0,0,1-2.09,1.64l-.3,0H183c-.11,0-.25,0-.35,0a1.77,1.77,0,0,1-.33-.08,1.88,1.88,0,0,1-.3-.12,3,3,0,0,1-1.13-1.07,14.49,14.49,0,0,1-1.68-4.33c-.23-.85-.44-1.75-.73-2.74a11.22,11.22,0,0,0-.61-1.62l-.12-.22-.15-.26a3,3,0,0,0-.41-.54,2.24,2.24,0,0,0-.31-.3l-.19-.15a1.53,1.53,0,0,0-.23-.15,3.3,3.3,0,0,0-.73-.3c-.17,0-.14,0-.19,0l-.09,0h0c-.14,0,.26,0-.33,0l-.29,0a3,3,0,0,0-.54.11,4.25,4.25,0,0,0-.49.21,2.75,2.75,0,0,0-.38.24,3.29,3.29,0,0,0-.57.53,5.15,5.15,0,0,0-.37.48,8.83,8.83,0,0,0-.83,1.66c-.41,1-.7,2-1,2.89a23.68,23.68,0,0,1-1,2.59,5.73,5.73,0,0,1-1.26,1.86,1.76,1.76,0,0,1-.61.35h0s-.07,0-.13,0h-.32a.68.68,0,0,1-.15,0,1.35,1.35,0,0,1-.6-.28,4.08,4.08,0,0,1-.67-.73,12.1,12.1,0,0,1-1.22-2.39c-.37-.91-.69-1.88-1.06-2.9-.18-.51-.37-1-.59-1.58a11.47,11.47,0,0,0-.86-1.72,5.42,5.42,0,0,0-.8-1l-.29-.25c-.12-.09-.25-.17-.38-.25l-.19-.11-.32-.13-.32-.1-.17,0-.11,0-.19,0h0c-.5,0-.22,0-.37,0l-.27,0a2.68,2.68,0,0,0-1.13.39,3.86,3.86,0,0,0-.5.38,4.35,4.35,0,0,0-.34.41,2.17,2.17,0,0,0-.24.39,2.25,2.25,0,0,0-.17.36,7.7,7.7,0,0,0-.45,2.11c-.05.59-.08,1.12-.12,1.64a12.87,12.87,0,0,1-.39,2.71,2.67,2.67,0,0,1-1,1.54,2.11,2.11,0,0,1-.8.35A2.75,2.75,0,0,1,153,80l-.11,0h-1.12a4.85,4.85,0,0,1-.55-.08,3.29,3.29,0,0,1-.9-.32,2.74,2.74,0,0,1-.68-.55,4.17,4.17,0,0,1-.56-.85,11.22,11.22,0,0,1-.77-2.45c-.21-.93-.34-1.91-.67-3.08a5.69,5.69,0,0,0-1-2.06,3.27,3.27,0,0,0-1.54-1l-.29-.08-.23,0-.19,0h-.09c-.43,0-.18,0-.3,0h-.11l-.41,0a3.51,3.51,0,0,0-1.52.67l-.29.25a2.55,2.55,0,0,0-.23.24,4,4,0,0,0-.39.49,7.82,7.82,0,0,0-.85,1.73c-.39,1-.63,2-.89,2.83a17.16,17.16,0,0,1-.86,2.32,5,5,0,0,1-1.07,1.55,2.62,2.62,0,0,1-.62.4,2.68,2.68,0,0,1-.34.13l-.28.07-.32,0h-.67a4.62,4.62,0,0,1-.87-.1,3.52,3.52,0,0,1-1.43-.69c-.91-.66-1.78-2-3-3.13a9.18,9.18,0,0,0-1-.84l-.54-.39c-.19-.12-.39-.22-.59-.32a5.46,5.46,0,0,0-.59-.3l-.61-.23-.61-.2-.65-.13-.64-.12-.28,0-.23,0-1-.05h-9.56A8.23,8.23,0,0,0,112,70.71v-.83a1.92,1.92,0,0,0,0-.22,2.74,2.74,0,0,0-4.66-1.73,2.75,2.75,0,0,0-3.86,0,2.74,2.74,0,0,0-4.66,1.73H73.19a2.74,2.74,0,0,0-4.66-1.73,2.75,2.75,0,0,0-3.86,0,2.75,2.75,0,0,0-1.94-.79,2.69,2.69,0,0,0-2.27,1.24,3.75,3.75,0,0,0,0-.47,4.18,4.18,0,0,0-2.59-3.86L58,64a11.35,11.35,0,0,0,2.75-3.2,16.34,16.34,0,0,0,2.1-7.27,19.71,19.71,0,0,0-.93-7.26,16.59,16.59,0,0,0-1.56-3.45,13.47,13.47,0,0,0-2.61-3.14,16.45,16.45,0,0,0-6.83-3.53,20.07,20.07,0,0,0-7.4-.45,18.79,18.79,0,0,0-7.12,2.43,16.6,16.6,0,0,0-5.54,5.39,18.17,18.17,0,0,0-2.58,7.13,21.16,21.16,0,0,0-.19,3.17c-.31,0-.62,0-.93,0a21.64,21.64,0,0,0,0,43.28c.31,0,.62,0,.93-.06a21.36,21.36,0,0,0,.19,3.38,18.17,18.17,0,0,0,2.58,7.13,16.57,16.57,0,0,0,5.54,5.38,18.62,18.62,0,0,0,7.12,2.43,19.86,19.86,0,0,0,7.4-.44,16.59,16.59,0,0,0,6.83-3.54,13.42,13.42,0,0,0,2.61-3.13,16.59,16.59,0,0,0,1.56-3.45,19.71,19.71,0,0,0,.93-7.26,16.42,16.42,0,0,0-2.1-7.28,11.76,11.76,0,0,0-2.68-3.13,4.18,4.18,0,0,0,2.45-3.8,3.65,3.65,0,0,0-.08-.74,2.74,2.74,0,0,0,4.24.46,2.73,2.73,0,0,0,3.86,0,2.74,2.74,0,0,0,4.59-1.27H98.89A2.74,2.74,0,0,0,103.48,83a2.73,2.73,0,0,0,3.86,0,2.74,2.74,0,0,0,4.59-1.27,2.54,2.54,0,0,0,.1-.68v-.59a8.33,8.33,0,0,0,1.42-2.93H123l.79,0,.24,0,.2,0,.29.07.31.06.33.12.34.12.32.17.32.17.31.23a6.12,6.12,0,0,1,.64.54c.44.42.87.91,1.4,1.52a13.51,13.51,0,0,0,1.94,1.89,7.48,7.48,0,0,0,2.92,1.4,8.37,8.37,0,0,0,1.61.21h1.24l.32,0a8.52,8.52,0,0,0,1-.2,7.87,7.87,0,0,0,.88-.33,6.67,6.67,0,0,0,1.59-1,8.87,8.87,0,0,0,2-2.82,19.1,19.1,0,0,0,1.06-2.88c.28-.92.53-1.84.81-2.59l.06-.17c.19.71.34,1.59.54,2.51a14.07,14.07,0,0,0,1.1,3.35,8.16,8.16,0,0,0,1.13,1.71A7.2,7.2,0,0,0,148.43,83a7.79,7.79,0,0,0,2,.73c.34.06.67.1,1,.14l.49,0h.54l.4,0h.19l.28,0a6.19,6.19,0,0,0,1.09-.2,6.11,6.11,0,0,0,2.06-.93,6,6,0,0,0,1.61-1.7,8.31,8.31,0,0,0,.85-1.93,16.65,16.65,0,0,0,.54-3.56c0-.11,0-.21,0-.32l.33.88c.35,1,.7,2,1.12,3a15.24,15.24,0,0,0,1.66,3.19,7.56,7.56,0,0,0,1.47,1.54,5.09,5.09,0,0,0,2.21,1,4.07,4.07,0,0,0,.61.08l.3,0h.54l.26,0,.71-.14a5.57,5.57,0,0,0,2.06-1.14A9.42,9.42,0,0,0,173,80.49a27.29,27.29,0,0,0,1.17-3c.26-.77.5-1.53.75-2.21.2.7.39,1.44.59,2.19a18,18,0,0,0,2.23,5.5,6.86,6.86,0,0,0,2.57,2.3,6.25,6.25,0,0,0,3.32.59,5.87,5.87,0,0,0,3.18-1.25,7.93,7.93,0,0,0,1.89-2.2,19.13,19.13,0,0,0,1.76-4.25c.38-1.3.69-2.48.93-3.47.13-.47.24-.91.33-1.14a2.71,2.71,0,0,1,.78.42,10.59,10.59,0,0,1,1.29,1.12l1.12,1.15S194.93,76.09,195,75.8ZM53.24,44.92a6.69,6.69,0,0,1,1.35,1.47,10.16,10.16,0,0,1,1,2.06,12.51,12.51,0,0,1,.77,4.75,9.5,9.5,0,0,1-1.15,4.37A5,5,0,0,1,54.05,59c-.11.07-.22.16-.33.22l-.08,0h0a.91.91,0,0,1-.17.08,5.64,5.64,0,0,1-.91.28l-.36,0a6.39,6.39,0,0,0,.62-2.72,5.72,5.72,0,0,0-5.44-6,5.16,5.16,0,0,0-3.58,1.5l-.15.13,0,0a6.24,6.24,0,0,0-1.67,4.3,6.37,6.37,0,0,0,.48,2.45,7.67,7.67,0,0,0,1.28,2.66,10.62,10.62,0,0,0,1.7,1.76c.28.23.56.45.84.64s.66.44,1,.65A9,9,0,0,0,49.5,66a9.45,9.45,0,0,0,3.07.16,4.13,4.13,0,0,0-.42,1.79,4.18,4.18,0,0,0,.29,1.51l-3.26-.07-.45-.08-.61-.13c-.41-.1-.82-.22-1.24-.35a19,19,0,0,1-2.41-.93,16.64,16.64,0,0,1-4.21-2.78,15.85,15.85,0,0,1-4.72-8.54A12.4,12.4,0,0,1,37,47.46a10.56,10.56,0,0,1,7.51-4.52A11.6,11.6,0,0,1,53.24,44.92ZM51.17,55.51a.16.16,0,0,1-.11.21.16.16,0,0,1-.2-.07v0a4.87,4.87,0,0,0-1.67-1.73,3.33,3.33,0,0,0-2.25-.4,3.64,3.64,0,0,0-2.09,1,4,4,0,0,0-1.08,2.11h0a.15.15,0,0,1-.18.12.14.14,0,0,1-.12-.13,3.64,3.64,0,0,1,.85-2.62,4.1,4.1,0,0,1,2.51-1.26,3.84,3.84,0,0,1,2.75.61A4.42,4.42,0,0,1,51.17,55.51ZM38.65,72.44A25.29,25.29,0,0,0,41.7,74c1.08.47,2.2.8,3.31,1.18s0,.6,0,.6A28.3,28.3,0,0,0,41.7,77a27.06,27.06,0,0,0-3.47,1.87,5.48,5.48,0,0,0,.42-6.41ZM37.5,74.17a.17.17,0,0,1-.31.14h0a5,5,0,0,0-1.68-1.74,3.37,3.37,0,0,0-2.24-.4,3.67,3.67,0,0,0-2.09,1,3.89,3.89,0,0,0-1.08,2.11v0a.15.15,0,0,1-.18.12.17.17,0,0,1-.12-.14,3.65,3.65,0,0,1,.85-2.61,4.06,4.06,0,0,1,2.51-1.27,3.82,3.82,0,0,1,2.75.62A4.32,4.32,0,0,1,37.5,74.17ZM31.61,45.66A14.56,14.56,0,0,1,34.23,42a16.46,16.46,0,0,1,3.61-2.67,15.16,15.16,0,0,1,8.59-1.94.17.17,0,0,1,.16.18.17.17,0,0,1-.16.15,18.41,18.41,0,0,0-8.09,2.49,14.66,14.66,0,0,0-5.85,5.91,17.07,17.07,0,0,0-1.75,8.22,19.56,19.56,0,0,0,2.2,8.26.1.1,0,0,1,0,.14.11.11,0,0,1-.14,0A18.11,18.11,0,0,1,30,54.37,16.65,16.65,0,0,1,31.61,45.66ZM11.32,66.4a19.11,19.11,0,0,0-2.75,8.36A21.44,21.44,0,0,0,9.82,83.6a.1.1,0,0,1-.07.13.1.1,0,0,1-.13,0,19.68,19.68,0,0,1-1.82-9,18.81,18.81,0,0,1,.75-4.59,21,21,0,0,1,1.89-4.26,19.76,19.76,0,0,1,6.4-6.68,18.09,18.09,0,0,1,8.69-3,.17.17,0,0,1,.18.16.17.17,0,0,1-.14.18,22.39,22.39,0,0,0-8.16,3.5A20.08,20.08,0,0,0,14,62.91,19.49,19.49,0,0,0,11.32,66.4ZM27.15,89.94a14.54,14.54,0,1,1,0-29.07,14.17,14.17,0,0,1,2.26.2,22.67,22.67,0,0,0,1.66,3.61,21.92,21.92,0,0,0,4.25,5.25,5.5,5.5,0,0,0-1.47-.22,5.64,5.64,0,1,0,2,10.89,1.56,1.56,0,0,0-.2.16,21.86,21.86,0,0,0-4.6,5.58,22.22,22.22,0,0,0-1.58,3.39A14.23,14.23,0,0,1,27.15,89.94Zm6.66,17.62a.11.11,0,0,1-.14,0,15.81,15.81,0,0,1-3.4-8.68,19.61,19.61,0,0,1,1.53-9.32,22.36,22.36,0,0,1,2.33-4.16A19.31,19.31,0,0,1,37.48,82a17.32,17.32,0,0,1,8.62-3.73.16.16,0,0,1,.18.14.17.17,0,0,1-.14.18,20.42,20.42,0,0,0-8,4.18,19.2,19.2,0,0,0-5.38,7.19,19.64,19.64,0,0,0-1.34,4.34A17.74,17.74,0,0,0,31,98.81a16.51,16.51,0,0,0,2.81,8.61A.09.09,0,0,1,33.81,107.56Zm21.81-5a10.71,10.71,0,0,1-1,2.06,6.92,6.92,0,0,1-1.35,1.47,11.6,11.6,0,0,1-8.73,2A10.56,10.56,0,0,1,37,103.56a12.4,12.4,0,0,1-1.46-9.08,15.85,15.85,0,0,1,4.72-8.54,16.64,16.64,0,0,1,4.21-2.78,17.63,17.63,0,0,1,2.41-.93c.42-.13.83-.25,1.24-.35l.61-.13.45-.08,3.33-.08a4.16,4.16,0,0,0-.36,1.69,4.32,4.32,0,0,0,.32,1.61,9.39,9.39,0,0,0-3,.16,9,9,0,0,0-2.28.87c-.34.2-.72.44-1,.64s-.56.42-.84.65A9.89,9.89,0,0,0,43.68,89a7.69,7.69,0,0,0-1.25,2.55A6.5,6.5,0,0,0,41.92,94a6.27,6.27,0,0,0,1.51,4.12,1.85,1.85,0,0,0,.2.27,5.1,5.1,0,0,0,.62.51l.09.07a.83.83,0,0,0,.16.09,5,5,0,0,0,2.86.92,5.73,5.73,0,0,0,5.44-6,6.34,6.34,0,0,0-.6-2.67l.34,0a4.79,4.79,0,0,1,.91.28l.17.07h0l.08.06a3.15,3.15,0,0,1,.33.22,5,5,0,0,1,1.19,1.42,9.47,9.47,0,0,1,1.15,4.37A12.54,12.54,0,0,1,55.62,102.57Zm-4.45-10.3a.16.16,0,0,1-.11.21.16.16,0,0,1-.2-.07v0a5,5,0,0,0-1.67-1.73,3.39,3.39,0,0,0-2.25-.4,3.64,3.64,0,0,0-2.09.95,4,4,0,0,0-1.08,2.11h0a.16.16,0,0,1-.18.13.16.16,0,0,1-.12-.14,3.6,3.6,0,0,1,.85-2.61,4.06,4.06,0,0,1,2.51-1.27,3.8,3.8,0,0,1,2.75.62A4.35,4.35,0,0,1,51.17,92.27ZM60,76H57s-4,.16-5.59-1.76S56,72.79,56,72.79h4Zm0,5.44h0Zm2.48-6.65a1.44,1.44,0,0,0-.61.15,41.14,41.14,0,0,1,.26-4.83c0-.36.27-.59.49-.52a.58.58,0,0,1,.33.52,38.31,38.31,0,0,1,.26,4.9A1.42,1.42,0,0,0,62.53,74.76Zm3.8,0a1.41,1.41,0,0,0-.61.15A41.14,41.14,0,0,1,66,70.08c0-.36.26-.59.49-.52a.6.6,0,0,1,.33.52,40.22,40.22,0,0,1,.26,4.9A1.45,1.45,0,0,0,66.33,74.76Zm4,0a1.37,1.37,0,0,0-.6.15A41.13,41.13,0,0,1,70,70.08c.05-.36.27-.59.5-.52a.6.6,0,0,1,.33.52,42.34,42.34,0,0,1,.26,4.9A1.46,1.46,0,0,0,70.31,74.76ZM98.76,76H73.28v-3.2H98.76Zm2.58-1.21a1.44,1.44,0,0,0-.61.15,41.14,41.14,0,0,1,.26-4.83c.05-.36.27-.59.49-.52a.6.6,0,0,1,.34.52,40.21,40.21,0,0,1,.25,4.9A1.42,1.42,0,0,0,101.34,74.76Zm3.8,0a1.41,1.41,0,0,0-.61.15,41.14,41.14,0,0,1,.26-4.83c0-.36.26-.59.49-.52a.6.6,0,0,1,.33.52,40.22,40.22,0,0,1,.26,4.9A1.45,1.45,0,0,0,105.14,74.76Zm4,0a1.37,1.37,0,0,0-.6.15,39.09,39.09,0,0,1,.26-4.83c0-.36.26-.59.49-.52a.6.6,0,0,1,.33.52,42.34,42.34,0,0,1,.26,4.9A1.46,1.46,0,0,0,109.12,74.76Zm23.55,6.76a4.89,4.89,0,0,1-1.08-.23,6.82,6.82,0,0,1-1.42-.66,10.42,10.42,0,0,1-1.39-1.13c-.4-.46-.76-.93-1.09-1.35s-.58-.86-.84-1.18-.46-.64-.64-.83l-.26-.32.41.12a4.31,4.31,0,0,1,1,.5,8.37,8.37,0,0,1,1.2,1c.38.39.77.81,1.17,1.19a10,10,0,0,0,1.13,1.13c.4.32.75.68,1.09.92s.62.5.83.64l.33.25Zm17.11.48a3.83,3.83,0,0,1-1.24-.62,6.18,6.18,0,0,1-1.4-1.4,11.26,11.26,0,0,1-1.07-2c-.24-.71-.44-1.43-.61-2.09s-.23-1.3-.35-1.82-.15-1-.22-1.3-.08-.51-.08-.51l.32.41a8.74,8.74,0,0,1,.68,1.17,17.37,17.37,0,0,1,.73,1.73c.22.63.46,1.3.74,1.94a9.94,9.94,0,0,0,.81,1.84,10.71,10.71,0,0,0,.94,1.47,7,7,0,0,0,.87.94,3.52,3.52,0,0,0,.39.33A5,5,0,0,1,149.78,82Zm16.88,1.16c-.09,0-.24,0-.42-.09a4.74,4.74,0,0,1-1.4-.68,7.45,7.45,0,0,1-1.57-1.56A16.24,16.24,0,0,1,162,78.67c-.31-.78-.58-1.55-.85-2.26s-.45-1.38-.69-1.93a14.16,14.16,0,0,0-.58-1.34c-.15-.33-.25-.52-.25-.52l.45.37a6.06,6.06,0,0,1,1,1.14A13.1,13.1,0,0,1,162.21,76c.33.7.65,1.45,1,2.17a13.57,13.57,0,0,0,1,2.06,10,10,0,0,0,1.12,1.64,6.51,6.51,0,0,0,1,1,4.57,4.57,0,0,0,.46.34Zm14.57.85a7.36,7.36,0,0,1-1.24-.78,8.13,8.13,0,0,1-1.46-1.51,12.21,12.21,0,0,1-1.15-2.11c-.27-.76-.49-1.51-.71-2.19s-.35-1.34-.56-1.87-.36-1-.52-1.29l-.24-.49.44.34a5.76,5.76,0,0,1,1,1.11,10.89,10.89,0,0,1,1,1.81c.28.69.55,1.42.85,2.11a11.1,11.1,0,0,0,.89,2,15,15,0,0,0,1,1.61c.35.44.64.84.87,1.09s.36.41.36.41Z"/><path class="cls-1" d="M95.78,46.4h4.88V44.28l-5-.57c-.08-3.84-.09-7.54-.09-11.38h2.86c10.83,0,14.92-5,14.92-10.93,0-6.21-4.51-10.57-13.33-10.57H85.79V13l4.95.57c.09,4.58.1,9.19.1,13.76V30c0,4.64,0,9.25-.1,13.76l-4.95.57V46.4h10Zm3.29-33.12c6.42,0,9.29,3,9.29,8.12s-2.55,8.49-9.08,8.49H95.62v-2.6c0-4.73,0-9.42.1-14Z"/><path class="cls-1" d="M126.83,32.49c-7.11,2.6-8.7,5-8.7,8,0,4.4,3.24,6.63,7.11,6.63,3.09,0,4.89-1.37,7.82-4.27a4.59,4.59,0,0,0,4.71,4.11,5,5,0,0,0,4.51-2.71l-1.06-1.16a2.62,2.62,0,0,1-2.07,1.16c-1.22,0-2-.84-2-3.23V29.73c0-6.69-2.66-9.18-8.13-9.18-5.3,0-9.23,2.49-10.24,6.53a2.16,2.16,0,0,0,2.39,2.12c1.43,0,2.23-.85,2.7-2.39L125,23.3a12.09,12.09,0,0,1,3-.36c3.5,0,5,1.27,5,6.47v1.3A63,63,0,0,0,126.83,32.49Zm-4.19,7.22c0-1.54.53-3.55,5.31-5.41a50.2,50.2,0,0,1,5-1.62v8.07c-3.12,2.23-4.19,2.89-6,2.89C124.5,43.64,122.64,42.53,122.64,39.71Z"/><path class="cls-1" d="M153.86,46.4h4.25V44.54l-4.31-.76c-.06-2.84-.1-5.68-.1-8.53V15.08l.21-7.54-.74-.42-8.12,2.39v1.86l4.4.53V35.25c0,2.85,0,5.69-.1,8.53l-4.3.76V46.4h8.81Z"/><path class="cls-1" d="M171.11,32.49c-7.11,2.6-8.7,5-8.7,8,0,4.4,3.24,6.63,7.11,6.63,3.09,0,4.89-1.37,7.82-4.27a4.59,4.59,0,0,0,4.71,4.11,5,5,0,0,0,4.51-2.71l-1.06-1.16a2.62,2.62,0,0,1-2.07,1.16c-1.22,0-2-.84-2-3.23V29.73c0-6.69-2.66-9.18-8.13-9.18-5.31,0-9.23,2.49-10.24,6.53a2.16,2.16,0,0,0,2.39,2.12c1.43,0,2.23-.85,2.7-2.39l1.06-3.51a12.09,12.09,0,0,1,3-.36c3.5,0,5,1.27,5,6.47v1.3A63,63,0,0,0,171.11,32.49Zm-4.19,7.22c0-1.54.53-3.55,5.31-5.41a50.2,50.2,0,0,1,5-1.62v8.07c-3.12,2.23-4.2,2.89-6,2.89C168.78,43.64,166.92,42.53,166.92,39.71Z"/><polygon class="cls-1" points="210.29 46.4 210.82 37.75 208.17 37.75 206.59 44.17 194.76 44.17 210.03 23.1 210.03 21.24 190.33 21.24 189.91 29.15 192.56 29.36 193.99 23.47 204.9 23.47 189.59 44.54 189.59 46.4 210.29 46.4"/><polygon class="cls-1" points="235.51 46.4 236.04 37.75 233.39 37.75 231.81 44.17 219.98 44.17 235.25 23.1 235.25 21.24 215.55 21.24 215.13 29.15 217.78 29.36 219.21 23.47 230.12 23.47 214.81 44.54 214.81 46.4 235.51 46.4"/><path class="cls-1" d="M253,47.09c6,0,12.1-4.35,12.1-13.16S259,20.55,253,20.55s-12.1,4.56-12.1,13.38S246.88,47.09,253,47.09Zm0-24.15c4.62,0,7.33,3.87,7.33,11S257.6,44.7,253,44.7s-7.32-3.66-7.32-10.77S248.26,22.94,253,22.94Z"/></svg>