<svg id="Livello_1" data-name="Livello 1" xmlns="http://www.w3.org/2000/svg" viewBox="0 0 329.15 120.92"><defs><style>.cls-1{fill:#1f4465;}</style></defs><title>cTavola disegno 1</title><path class="cls-1" d="M214,56.7H199.7v2.13l5,.57c.09,4.58.09,9.19.09,13.76v2.66c0,4.64,0,9.25-.09,13.76l-5,.57v2.12h14.87V90.15l-4.95-.57c-.08-3.84-.1-7.54-.1-11.38h2.87c10.83,0,14.92-5,14.92-10.93C227.31,61.06,222.79,56.7,214,56.7Zm-.79,19.06h-3.67v-2.6c0-4.73,0-9.42.11-14H213c6.43,0,9.29,3,9.29,8.12s-2.58,8.48-9.1,8.48Z"/><path class="cls-1" d="M234.16,57.08a3.51,3.51,0,1,0,3.67-3.35h-.17a3.34,3.34,0,0,0-3.5,3.16Z"/><path class="cls-1" d="M243.66,92.27V90.41l-3.79-.76c-.06-2.66-.08-6.16-.08-8.53v-7L240,67l-.8-.53-8,3.18v1.86l4.36.48c.1,2.12.16,3.77.16,6.69v2.49c0,2.38,0,5.88-.09,8.55l-4.11.74v1.86h12.21Z"/><path class="cls-1" d="M273.07,81.12V76.24c0-7-2.17-9.82-6.74-9.82-3.34,0-7.05,2-9.59,4.83L256.3,67l-.8-.53-7.22,3.18v1.86l4.25.48c.1,2.12.16,3.77.16,6.69v2.49c0,2.38,0,5.9-.09,8.57l-4,.72v1.86h12.21V90.41L257,89.65c-.06-2.66-.09-6.16-.09-8.53V73.45c2.81-2.34,4.91-3.32,7.44-3.32,3.18,0,4.46,1.6,4.46,6.53v4.46c0,2.45,0,5.92-.09,8.57l-4,.72v1.86H277V90.41l-3.79-.76C273.1,87,273.07,83.57,273.07,81.12Z"/><path class="cls-1" d="M291.5,90.31c-1.81,0-3-1.17-3-3.93V69.87h7.32V67.11h-7.23l.33-7.22h-3.08L284.56,67l-4.74.61v2.28h4.46V87c0,4.09,2.28,6,5.94,6a7.63,7.63,0,0,0,6.16-2.71l-1.22-1.43A6,6,0,0,1,291.5,90.31Z"/><path class="cls-1" d="M312.1,66.42C306,66.42,300,71,300,79.8S306,93,312.1,93s12.1-4.35,12.1-13.16S318.1,66.42,312.1,66.42Zm0,24.15c-4.73,0-7.33-3.66-7.33-10.77s2.6-11,7.33-11,7.32,3.87,7.32,11S316.72,90.57,312.1,90.57Z"/><path class="cls-1" d="M195,75.8a6.53,6.53,0,0,0,0-1.25,6.12,6.12,0,0,0-.62-2,4.45,4.45,0,0,0-.89-1.22,3.66,3.66,0,0,0-.77-.59,5.34,5.34,0,0,0-1.08-.38h-.77a2.82,2.82,0,0,0-1,.37,3.78,3.78,0,0,0-1,1.07,8.66,8.66,0,0,0-.86,1.82c-.42,1.15-.66,2.33-1,3.51a14,14,0,0,1-1.34,3.37,2.91,2.91,0,0,1-2.09,1.64h-.93a2,2,0,0,1-.33-.08,1.88,1.88,0,0,1-.3-.12,3.05,3.05,0,0,1-1.13-1.07,14.38,14.38,0,0,1-1.68-4.33c-.23-.85-.44-1.75-.73-2.74a11.71,11.71,0,0,0-.61-1.62l-.12-.22-.15-.26a3.07,3.07,0,0,0-.41-.54,2.2,2.2,0,0,0-.31-.3l-.19-.15a1.14,1.14,0,0,0-.23-.15,3.3,3.3,0,0,0-.73-.3h-.9a3.45,3.45,0,0,0-.54.11,4.25,4.25,0,0,0-.49.21,3,3,0,0,0-.38.24,3.17,3.17,0,0,0-.57.53,4.37,4.37,0,0,0-.37.48,9.19,9.19,0,0,0-.83,1.66c-.41,1-.7,2-1,2.89a23.88,23.88,0,0,1-1,2.59,5.62,5.62,0,0,1-1.26,1.86,1.7,1.7,0,0,1-.61.35h-.6a1.33,1.33,0,0,1-.6-.28,4.21,4.21,0,0,1-.67-.73,12.52,12.52,0,0,1-1.22-2.39c-.37-.91-.69-1.88-1.06-2.9-.18-.51-.37-1-.59-1.58a12,12,0,0,0-.86-1.72,5.49,5.49,0,0,0-.8-1l-.29-.25c-.12-.09-.25-.17-.38-.25l-.19-.11-.32-.13-.32-.1h-1.11a2.68,2.68,0,0,0-1.13.39,3.66,3.66,0,0,0-.5.38,4.35,4.35,0,0,0-.34.41,2.55,2.55,0,0,0-.24.39,2.37,2.37,0,0,0-.17.36,7.65,7.65,0,0,0-.45,2.11c-.05.59-.08,1.12-.12,1.64a12.48,12.48,0,0,1-.39,2.71,2.68,2.68,0,0,1-1,1.54,2.13,2.13,0,0,1-.8.35,2.66,2.66,0,0,1-.63,0h-1.23a5.21,5.21,0,0,1-.55-.08,3.22,3.22,0,0,1-.9-.32,3,3,0,0,1-.68-.55,4,4,0,0,1-.56-.85,11.07,11.07,0,0,1-.77-2.45c-.21-.93-.34-1.91-.67-3.08a5.64,5.64,0,0,0-1-2.06,3.31,3.31,0,0,0-1.54-1l-.29-.08h-1.33a3.59,3.59,0,0,0-1.52.67l-.29.25a2.61,2.61,0,0,0-.23.24,4.66,4.66,0,0,0-.39.49,7.94,7.94,0,0,0-.85,1.73c-.39,1-.63,2-.89,2.83a17.46,17.46,0,0,1-.86,2.32,5.06,5.06,0,0,1-1.07,1.55,2.73,2.73,0,0,1-.62.4l-.34.13-.28.07h-1a5.16,5.16,0,0,1-.87-.1,3.52,3.52,0,0,1-1.43-.69c-.91-.66-1.78-2-3-3.13a10.1,10.1,0,0,0-1-.84l-.54-.39c-.19-.12-.39-.22-.59-.32a6.54,6.54,0,0,0-.59-.3l-.61-.23-.61-.2-.65-.13-.64-.12h-.51l-1-.05h-9.56a8.11,8.11,0,0,0-1.55-3v-1a2.75,2.75,0,0,0-3-2.52,2.78,2.78,0,0,0-1.71.79,2.76,2.76,0,0,0-3.86,0,2.74,2.74,0,0,0-4.66,1.73H73.19a2.75,2.75,0,0,0-3-2.52,2.78,2.78,0,0,0-1.71.79,2.76,2.76,0,0,0-3.86,0,2.76,2.76,0,0,0-1.94-.79,2.71,2.71,0,0,0-2.27,1.24,3.69,3.69,0,0,0,0-.47,4.17,4.17,0,0,0-2.59-3.86L58,64a11.4,11.4,0,0,0,2.75-3.2,16.34,16.34,0,0,0,2.1-7.27,19.63,19.63,0,0,0-.93-7.26,16.74,16.74,0,0,0-1.56-3.45,13.81,13.81,0,0,0-2.61-3.14,16.48,16.48,0,0,0-6.83-3.53,20.06,20.06,0,0,0-7.4-.45,18.83,18.83,0,0,0-7.12,2.43,16.6,16.6,0,0,0-5.54,5.39,18.23,18.23,0,0,0-2.58,7.13,21,21,0,0,0-.19,3.17h-.93a21.64,21.64,0,0,0,0,43.28,4.85,4.85,0,0,0,.93-.06,21.22,21.22,0,0,0,.19,3.38,18.23,18.23,0,0,0,2.58,7.13,16.66,16.66,0,0,0,5.54,5.38,18.61,18.61,0,0,0,7.12,2.43,19.84,19.84,0,0,0,7.4-.44,16.62,16.62,0,0,0,6.83-3.54,13.55,13.55,0,0,0,2.61-3.13,16.74,16.74,0,0,0,1.56-3.45,19.63,19.63,0,0,0,.93-7.26,16.35,16.35,0,0,0-2.1-7.28,11.82,11.82,0,0,0-2.68-3.13,4.18,4.18,0,0,0,2.45-3.8,3.65,3.65,0,0,0-.08-.74,2.75,2.75,0,0,0,3.79.83,3.16,3.16,0,0,0,.45-.37,2.72,2.72,0,0,0,3.86,0,2.73,2.73,0,0,0,3.87,0,2.71,2.71,0,0,0,.72-1.26H98.89a2.75,2.75,0,0,0,3.36,1.94,2.84,2.84,0,0,0,1.23-.72,2.72,2.72,0,0,0,3.86,0,2.73,2.73,0,0,0,3.87,0,2.71,2.71,0,0,0,.72-1.26,2.6,2.6,0,0,0,.1-.68v-.59a8.4,8.4,0,0,0,1.42-2.93h10.78l.29.07.31.06.33.12.34.12.32.17.32.17.31.23a6.76,6.76,0,0,1,.64.54c.44.42.87.91,1.4,1.52a13.34,13.34,0,0,0,1.94,1.89,7.6,7.6,0,0,0,2.92,1.4A8.77,8.77,0,0,0,135,84h1.56a8.43,8.43,0,0,0,1-.2,7.2,7.2,0,0,0,.88-.33,6.76,6.76,0,0,0,1.59-1,8.9,8.9,0,0,0,2-2.82,19.47,19.47,0,0,0,1.06-2.88c.28-.92.53-1.84.81-2.59l.06-.17c.19.71.34,1.59.54,2.51a13.71,13.71,0,0,0,1.1,3.35,7.8,7.8,0,0,0,1.13,1.71A7.1,7.1,0,0,0,148.43,83a7.86,7.86,0,0,0,2,.73c.34.06.67.1,1,.14h1.9a5.81,5.81,0,0,0,1.09-.2,6,6,0,0,0,2.06-.93,6.07,6.07,0,0,0,1.61-1.7,8.33,8.33,0,0,0,.85-1.93,16.48,16.48,0,0,0,.54-3.56v-.32l.33.88c.35,1,.7,2,1.12,3a15.1,15.1,0,0,0,1.66,3.19,7.4,7.4,0,0,0,1.47,1.54,5.05,5.05,0,0,0,2.21,1,4.07,4.07,0,0,0,.61.08H168l.71-.14a5.64,5.64,0,0,0,2.06-1.14A9.38,9.38,0,0,0,173,80.49a27.38,27.38,0,0,0,1.17-3c.26-.77.5-1.53.75-2.21.2.7.39,1.44.59,2.19a18,18,0,0,0,2.23,5.5,6.94,6.94,0,0,0,2.57,2.3,6.23,6.23,0,0,0,3.32.59,5.87,5.87,0,0,0,3.18-1.25,8,8,0,0,0,1.89-2.2,18.78,18.78,0,0,0,1.76-4.25c.38-1.3.69-2.48.93-3.47.13-.47.24-.91.33-1.14a2.94,2.94,0,0,1,.78.42,10.57,10.57,0,0,1,1.29,1.12l1.12,1.15S194.93,76.09,195,75.8ZM53.24,44.92a6.73,6.73,0,0,1,1.35,1.47,10,10,0,0,1,1,2.06,12.6,12.6,0,0,1,.77,4.75,9.52,9.52,0,0,1-1.15,4.37A5,5,0,0,1,54.05,59c-.11.07-.22.16-.33.22h-.08l-.17.08a5.64,5.64,0,0,1-.91.28H52.2a6.4,6.4,0,0,0,.62-2.72,5.72,5.72,0,0,0-5.43-6h0a5.17,5.17,0,0,0-3.58,1.5l-.15.13h0A6.24,6.24,0,0,0,42,56.79a6.44,6.44,0,0,0,.48,2.45,7.8,7.8,0,0,0,1.28,2.66,10.89,10.89,0,0,0,1.7,1.76c.28.23.56.45.84.64s.66.44,1,.65a9.21,9.21,0,0,0,2.22,1,9.59,9.59,0,0,0,3.07.16,4,4,0,0,0-.13,3.3l-3.26-.07-.45-.08-.61-.13c-.41-.1-.82-.22-1.24-.35a19,19,0,0,1-2.41-.93,16.46,16.46,0,0,1-4.21-2.78,15.9,15.9,0,0,1-4.72-8.54A12.4,12.4,0,0,1,37,47.46a10.58,10.58,0,0,1,7.51-4.52A11.63,11.63,0,0,1,53.24,44.92ZM51.17,55.51a.17.17,0,0,1-.1.21h0a.16.16,0,0,1-.2-.07h0a4.86,4.86,0,0,0-1.67-1.73,3.34,3.34,0,0,0-2.25-.4,3.67,3.67,0,0,0-2.09,1,4,4,0,0,0-1.08,2.11h0a.14.14,0,0,1-.17.12h0a.13.13,0,0,1-.12-.13A3.63,3.63,0,0,1,44.32,54a4.1,4.1,0,0,1,2.51-1.26,3.88,3.88,0,0,1,2.75.61A4.4,4.4,0,0,1,51.17,55.51ZM38.65,72.44A25,25,0,0,0,41.7,74c1.08.47,2.2.8,3.31,1.18s0,.6,0,.6A27.93,27.93,0,0,0,41.7,77a27,27,0,0,0-3.47,1.87,5.48,5.48,0,0,0,.42-6.41ZM37.5,74.17a.18.18,0,0,1-.08.23.18.18,0,0,1-.23-.09h0a5,5,0,0,0-1.68-1.74,3.37,3.37,0,0,0-2.24-.4,3.67,3.67,0,0,0-2.09,1,3.87,3.87,0,0,0-1.08,2.11h0a.14.14,0,0,1-.17.12h0a.17.17,0,0,1-.12-.14,3.65,3.65,0,0,1,.85-2.61,4.06,4.06,0,0,1,2.51-1.27,3.82,3.82,0,0,1,2.75.62A4.37,4.37,0,0,1,37.5,74.17ZM31.61,45.66A14.57,14.57,0,0,1,34.23,42a16.55,16.55,0,0,1,3.61-2.67,15.17,15.17,0,0,1,8.59-1.94.18.18,0,0,1,.16.18h0a.17.17,0,0,1-.16.15,18.39,18.39,0,0,0-8.09,2.49,14.66,14.66,0,0,0-5.85,5.91,17.08,17.08,0,0,0-1.75,8.22,19.69,19.69,0,0,0,2.2,8.26.1.1,0,0,1,0,.14.12.12,0,0,1-.14,0A18.12,18.12,0,0,1,30,54.37,16.66,16.66,0,0,1,31.61,45.66ZM11.32,66.4a19.11,19.11,0,0,0-2.75,8.36A21.46,21.46,0,0,0,9.82,83.6a.1.1,0,0,1-.06.13h0a.11.11,0,0,1-.13,0,19.66,19.66,0,0,1-1.82-9,18.74,18.74,0,0,1,.75-4.59,20.79,20.79,0,0,1,1.89-4.26,19.76,19.76,0,0,1,6.4-6.68,18.15,18.15,0,0,1,8.69-3,.18.18,0,0,1,.18.16h0a.16.16,0,0,1-.14.18A22.36,22.36,0,0,0,17.41,60,20.34,20.34,0,0,0,14,62.91,19.74,19.74,0,0,0,11.32,66.4ZM27.15,89.94a14.54,14.54,0,1,1-.76-29.07h.76a14.27,14.27,0,0,1,2.26.2,22.67,22.67,0,0,0,1.66,3.61,22,22,0,0,0,4.25,5.25A5.64,5.64,0,1,0,33.73,81a5.69,5.69,0,0,0,2.12-.39,1.56,1.56,0,0,0-.2.16,21.86,21.86,0,0,0-4.6,5.58,22.22,22.22,0,0,0-1.58,3.39A15,15,0,0,1,27.15,89.94Zm6.66,17.62a.12.12,0,0,1-.14,0,15.86,15.86,0,0,1-3.4-8.68,19.61,19.61,0,0,1,1.53-9.32,22.61,22.61,0,0,1,2.33-4.16A19.25,19.25,0,0,1,37.48,82a17.38,17.38,0,0,1,8.62-3.73.16.16,0,0,1,.18.14h0a.16.16,0,0,1-.14.18,20.42,20.42,0,0,0-8,4.18A19.17,19.17,0,0,0,32.76,90a20,20,0,0,0-1.34,4.34A18,18,0,0,0,31,98.81a16.54,16.54,0,0,0,2.81,8.61.09.09,0,0,1,0,.13Zm21.81-5a10.59,10.59,0,0,1-1,2.06,7,7,0,0,1-1.35,1.47,11.58,11.58,0,0,1-8.73,2A10.57,10.57,0,0,1,37,103.56a12.39,12.39,0,0,1-1.46-9.08,15.9,15.9,0,0,1,4.72-8.54,16.46,16.46,0,0,1,4.21-2.78,17.63,17.63,0,0,1,2.41-.93c.42-.13.83-.25,1.24-.35l.61-.13.45-.08,3.33-.08a4.11,4.11,0,0,0-.36,1.69,4.24,4.24,0,0,0,.32,1.61,9.44,9.44,0,0,0-3,.16,9.26,9.26,0,0,0-2.28.87c-.34.2-.72.44-1,.64s-.56.42-.84.65A10.11,10.11,0,0,0,43.68,89a7.67,7.67,0,0,0-1.25,2.55A6.47,6.47,0,0,0,41.92,94a6.29,6.29,0,0,0,1.51,4.12,1.89,1.89,0,0,0,.2.27,4.31,4.31,0,0,0,.62.51l.09.07a.51.51,0,0,0,.16.09,5,5,0,0,0,2.86.92,5.73,5.73,0,0,0,5.44-6,6.35,6.35,0,0,0-.6-2.67h.34a4.79,4.79,0,0,1,.91.28l.17.07h0l.08.06.33.22a5.06,5.06,0,0,1,1.19,1.42,9.52,9.52,0,0,1,1.15,4.37,12.47,12.47,0,0,1-.75,4.84Zm-4.45-10.3a.17.17,0,0,1-.1.21h0a.16.16,0,0,1-.2-.07h0a5,5,0,0,0-1.67-1.73,3.4,3.4,0,0,0-2.25-.4,3.66,3.66,0,0,0-2.09,1,4,4,0,0,0-1.08,2.11h0a.17.17,0,0,1-.18.13.16.16,0,0,1-.12-.14,3.59,3.59,0,0,1,.85-2.61,4.06,4.06,0,0,1,2.51-1.27,3.82,3.82,0,0,1,2.75.62,4.37,4.37,0,0,1,1.59,2.21ZM60,76H57s-4,.16-5.59-1.76S56,72.79,56,72.79h4Zm0,5.44Zm2.48-6.65a1.44,1.44,0,0,0-.61.15,41,41,0,0,1,.26-4.83c0-.36.27-.59.49-.52a.59.59,0,0,1,.33.52,38.22,38.22,0,0,1,.26,4.9,1.41,1.41,0,0,0-.68-.25Zm3.8,0a1.31,1.31,0,0,0-.61.15A39.41,39.41,0,0,1,66,70.08c0-.36.26-.59.49-.52a.6.6,0,0,1,.33.52,40.12,40.12,0,0,1,.26,4.9,1.43,1.43,0,0,0-.75-.22Zm4,0a1.27,1.27,0,0,0-.6.15A41.6,41.6,0,0,1,70,70.08c0-.36.27-.59.5-.52a.6.6,0,0,1,.33.52,42.22,42.22,0,0,1,.26,4.9,1.42,1.42,0,0,0-.78-.22ZM98.76,76H73.28V72.8H98.76Zm2.58-1.21a1.44,1.44,0,0,0-.61.15,41,41,0,0,1,.26-4.83c.05-.36.27-.59.49-.52a.61.61,0,0,1,.34.52,40.11,40.11,0,0,1,.25,4.9,1.39,1.39,0,0,0-.73-.25Zm3.8,0a1.31,1.31,0,0,0-.61.15,41,41,0,0,1,.26-4.83c0-.36.26-.59.49-.52a.6.6,0,0,1,.33.52,40.12,40.12,0,0,1,.26,4.9,1.49,1.49,0,0,0-.73-.25Zm4,0a1.27,1.27,0,0,0-.6.15,39,39,0,0,1,.26-4.83c0-.36.26-.59.49-.52a.6.6,0,0,1,.33.52,42.22,42.22,0,0,1,.26,4.9,1.49,1.49,0,0,0-.76-.25Zm23.55,6.76a5,5,0,0,1-1.08-.23,6.79,6.79,0,0,1-1.42-.66,10.72,10.72,0,0,1-1.39-1.13c-.4-.46-.76-.93-1.09-1.35s-.58-.86-.84-1.18-.46-.64-.64-.83l-.26-.32.41.12a4.25,4.25,0,0,1,1,.5,8.84,8.84,0,0,1,1.2,1c.38.39.77.81,1.17,1.19a10,10,0,0,0,1.13,1.13c.4.32.75.68,1.09.92s.62.5.83.64l.33.25ZM149.8,82a3.8,3.8,0,0,1-1.24-.62,6.2,6.2,0,0,1-1.4-1.4,11.64,11.64,0,0,1-1.07-2c-.24-.71-.44-1.43-.61-2.09s-.23-1.3-.35-1.82-.15-1-.22-1.3a3.15,3.15,0,0,1-.08-.51l.32.41a8.49,8.49,0,0,1,.68,1.17,17.57,17.57,0,0,1,.73,1.73c.22.63.46,1.3.74,1.94a10.08,10.08,0,0,0,.81,1.84,10.78,10.78,0,0,0,.94,1.47,7,7,0,0,0,.87.94,3.09,3.09,0,0,0,.39.33,4.54,4.54,0,0,1-.53-.12Zm16.88,1.16a.87.87,0,0,1-.42-.09,4.91,4.91,0,0,1-1.4-.68,7.26,7.26,0,0,1-1.57-1.56A16.11,16.11,0,0,1,162,78.67c-.31-.78-.58-1.55-.85-2.26s-.45-1.38-.69-1.93a13.21,13.21,0,0,0-.58-1.34c-.15-.33-.25-.52-.25-.52l.45.37a6,6,0,0,1,1,1.14A12.74,12.74,0,0,1,162.21,76c.33.7.65,1.45,1,2.17a13.49,13.49,0,0,0,1,2.06,10.11,10.11,0,0,0,1.12,1.64,6.75,6.75,0,0,0,1,1,5,5,0,0,0,.46.34Zm14.57.85a7.6,7.6,0,0,1-1.24-.78,8.35,8.35,0,0,1-1.46-1.51,12,12,0,0,1-1.15-2.11c-.27-.76-.49-1.51-.71-2.19s-.35-1.34-.56-1.87-.36-1-.52-1.29l-.24-.49.44.34a5.84,5.84,0,0,1,1,1.11,11.4,11.4,0,0,1,1,1.81c.28.69.55,1.42.85,2.11a11.51,11.51,0,0,0,.89,2,14.88,14.88,0,0,0,1,1.61c.35.44.64.84.87,1.09s.36.41.36.41Z"/><path class="cls-1" d="M95.78,46.4h4.88V44.28l-5-.57c-.08-3.84-.09-7.54-.09-11.38h2.86c10.83,0,14.92-5,14.92-10.93,0-6.21-4.51-10.57-13.33-10.57H85.79V13l4.95.57c.09,4.58.1,9.19.1,13.76V30c0,4.64,0,9.25-.1,13.76l-4.95.57V46.4h10Zm3.29-33.12c6.42,0,9.29,3,9.29,8.12s-2.55,8.49-9.08,8.49H95.62v-2.6c0-4.73,0-9.42.1-14Z"/><path class="cls-1" d="M126.83,32.49c-7.11,2.6-8.7,5-8.7,8,0,4.4,3.24,6.63,7.11,6.63,3.09,0,4.89-1.37,7.82-4.27A4.59,4.59,0,0,0,137.77,47a5,5,0,0,0,4.51-2.71l-1.06-1.16a2.62,2.62,0,0,1-2.07,1.16c-1.22,0-2-.84-2-3.23V29.73c0-6.69-2.66-9.18-8.13-9.18-5.3,0-9.23,2.49-10.24,6.53A2.16,2.16,0,0,0,121,29.21h.2c1.43,0,2.23-.85,2.7-2.39L125,23.3a12.13,12.13,0,0,1,3-.36c3.5,0,5,1.27,5,6.47v1.3A63,63,0,0,0,126.83,32.49Zm-4.19,7.22c0-1.54.53-3.55,5.31-5.41a49.37,49.37,0,0,1,5-1.62v8.07c-3.12,2.23-4.19,2.89-6,2.89C124.5,43.64,122.64,42.53,122.64,39.71Z"/><path class="cls-1" d="M153.86,46.4h4.25V44.54l-4.31-.76c-.06-2.84-.1-5.68-.1-8.53V15.08l.21-7.54-.74-.42-8.12,2.39v1.86l4.4.53V35.25c0,2.85,0,5.69-.1,8.53l-4.3.76V46.4Z"/><path class="cls-1" d="M171.11,32.49c-7.11,2.6-8.7,5-8.7,8,0,4.4,3.24,6.63,7.11,6.63,3.09,0,4.89-1.37,7.82-4.27A4.59,4.59,0,0,0,182.05,47a5,5,0,0,0,4.51-2.71l-1.06-1.16a2.62,2.62,0,0,1-2.07,1.16c-1.22,0-2-.84-2-3.23V29.73c0-6.69-2.66-9.18-8.13-9.18-5.31,0-9.23,2.49-10.24,6.53a2.16,2.16,0,0,0,2.19,2.13h.2c1.43,0,2.23-.85,2.7-2.39l1.06-3.51a12.13,12.13,0,0,1,3-.36c3.5,0,5,1.27,5,6.47v1.3A61.67,61.67,0,0,0,171.11,32.49Zm-4.19,7.22c0-1.54.53-3.55,5.31-5.41a49.37,49.37,0,0,1,5-1.62v8.07c-3.12,2.23-4.2,2.89-6,2.89C168.78,43.64,166.92,42.53,166.92,39.71Z"/><polygon class="cls-1" points="210.29 46.4 210.82 37.75 208.17 37.75 206.59 44.17 194.76 44.17 210.03 23.1 210.03 21.24 190.33 21.24 189.91 29.15 192.56 29.36 193.99 23.47 204.9 23.47 189.59 44.54 189.59 46.4 210.29 46.4"/><polygon class="cls-1" points="235.51 46.4 236.04 37.75 233.39 37.75 231.81 44.17 219.98 44.17 235.25 23.1 235.25 21.24 215.55 21.24 215.13 29.15 217.78 29.36 219.21 23.47 230.12 23.47 214.81 44.54 214.81 46.4 235.51 46.4"/><path class="cls-1" d="M253,47.09c6,0,12.1-4.35,12.1-13.16S259,20.55,253,20.55s-12.1,4.56-12.1,13.38S246.88,47.09,253,47.09Zm0-24.15c4.62,0,7.33,3.87,7.33,11S257.6,44.7,253,44.7s-7.32-3.66-7.32-10.77S248.26,22.94,253,22.94Z"/></svg>